<?xml version="1.0" encoding="utf-8"?>
<!-- Generator: Adobe Illustrator 23.0.1, SVG Export Plug-In . SVG Version: 6.00 Build 0)  -->
<svg version="1.1" id="Capa_1" xmlns="http://www.w3.org/2000/svg" xmlns:xlink="http://www.w3.org/1999/xlink" x="0px" y="0px"
	 viewBox="0 0 31.9 32" style="enable-background:new 0 0 31.9 32;" xml:space="preserve">
<style type="text/css">
	.st0{fill:#623BE2;}
	.st1{fill:#FEBCBB;}
</style>
<g>
	<path class="st0" d="M20.8,0c0.2,0.2,0.4,0.4,0.5,0.6c0.5,1,1,1.9,1.4,2.9c0.1,0.2,0.2,0.3,0.5,0.3c0.4,0,0.8,0,1.2,0.1
		c1.1,0.3,1.8,1.2,1.9,2.4c0,1.2,0,2.4,0,3.6c0,5.2,0,10.4,0,15.6c0,1.7-1,2.7-2.7,2.7c-0.2,0-0.4,0-0.6,0c-0.5,1.1-1.1,2.1-1.6,3.2
		c-0.2,0.4-0.5,0.6-1,0.6c-3,0-5.9,0-8.9,0c-0.4,0-0.7-0.1-0.8-0.5c-0.5-1.1-1.1-2.2-1.6-3.3c-0.5,0-0.9,0-1.3-0.1
		c-1.2-0.2-2-1.2-2-2.4c0-6.5,0-13,0-19.4c0-1.4,1.1-2.4,2.5-2.5l0,0C8.8,4,9.1,3.7,9.4,3c0.3-0.8,0.8-1.7,1.2-2.5
		c0.1-0.2,0.3-0.4,0.5-0.6C14.3,0,17.6,0,20.8,0z M25,16c0-3.2,0-6.3,0-9.5c0-1-0.5-1.4-1.4-1.4c-5.1,0-10.2,0-15.2,0
		C7.4,5.1,7,5.6,7,6.5c0,6.3,0,12.7,0,19c0,1,0.5,1.4,1.4,1.4c5.1,0,10.2,0,15.2,0c1,0,1.4-0.5,1.4-1.4C25,22.3,25,19.2,25,16z
		 M21.5,3.8c-0.4-0.8-0.8-1.6-1.2-2.4c0-0.1-0.2-0.1-0.3-0.1c-2.7,0-5.5,0-8.2,0c-0.1,0-0.2,0.1-0.3,0.2c-0.2,0.4-0.5,0.9-0.7,1.4
		c-0.2,0.3-0.3,0.6-0.5,1C14.1,3.8,17.8,3.8,21.5,3.8z M10.4,28.2c0.4,0.8,0.8,1.5,1.1,2.3c0.1,0.2,0.2,0.3,0.4,0.3
		c2.4,0,4.8,0,7.2,0c0.4,0,0.8,0.1,1-0.1c0.3-0.2,0.3-0.6,0.5-0.9c0.3-0.5,0.5-1,0.8-1.6C17.8,28.2,14.1,28.2,10.4,28.2z"/>
	<path class="st1" d="M8.2,6.3c5.2,0,10.4,0,15.6,0c0,6.4,0,12.9,0,19.3c-5.2,0-10.4,0-15.6,0C8.2,19.2,8.2,12.8,8.2,6.3z"/>
	<g>
		<path class="st0" d="M15.9,15.2c-1,0-2.1,0-3.1,0c-0.4,0-0.7-0.1-0.9-0.4c-0.2-0.3-0.1-0.6,0.1-1c1-1.6,2.1-3.1,3.1-4.7
			c0.4-0.6,1.1-0.6,1.5,0c1.1,1.6,2.1,3.1,3.1,4.7c0.2,0.3,0.3,0.6,0.1,1c-0.2,0.3-0.5,0.4-0.8,0.4C18,15.2,17,15.2,15.9,15.2z
			 M17.7,13.5c-0.6-0.9-1.1-1.7-1.7-2.6c-0.6,0.9-1.2,1.7-1.7,2.6C15.4,13.5,16.5,13.5,17.7,13.5z"/>
		<path class="st0" d="M16,16.8c1,0,2.1,0,3.1,0c0.4,0,0.7,0.1,0.9,0.4c0.2,0.3,0.1,0.7-0.1,1c-1,1.6-2.1,3.1-3.1,4.7
			c-0.4,0.7-1.1,0.7-1.5,0c-1-1.6-2.1-3.1-3.1-4.7c-0.2-0.3-0.3-0.6-0.1-1c0.2-0.3,0.5-0.4,0.9-0.4C13.9,16.8,14.9,16.8,16,16.8z
			 M14.2,18.5c0.6,0.9,1.1,1.7,1.7,2.6c0.6-0.9,1.2-1.7,1.7-2.6C16.5,18.5,15.4,18.5,14.2,18.5z"/>
	</g>
</g>
</svg>
